<?xml version="1.0" encoding="utf-8"?>
<!-- Generator: Adobe Illustrator 16.0.0, SVG Export Plug-In . SVG Version: 6.00 Build 0)  -->
<!DOCTYPE svg PUBLIC "-//W3C//DTD SVG 1.1//EN" "http://www.w3.org/Graphics/SVG/1.1/DTD/svg11.dtd">
<svg version="1.1" id="Layer_1" xmlns="http://www.w3.org/2000/svg" xmlns:xlink="http://www.w3.org/1999/xlink" x="0px" y="0px"
	 width="1448.809px" height="242px" viewBox="-272 25 1448.809 242" enable-background="new -272 25 1448.809 242"
	 xml:space="preserve">
<g transform="translate(0.000000,295.000000) scale(0.100000,-0.100000)">
	<path fill="#CDDC39" d="M1632.129,2467.734c-17.031-21.294-42.578-120.298-42.578-168.198v-40.449h196.938h196.933l11.709,28.74
		c6.392,15.972,13.838,59.609,17.036,97.939c9.58,95.806,7.451,96.87-200.132,96.87
		C1680.034,2482.636,1642.778,2479.443,1632.129,2467.734z"/>
	<path fill="#CDDC39" d="M2202.719,2466.665c-8.525-8.511-18.101-24.478-21.294-35.122
		c-24.487-84.106-400.259-1881.025-396.006-1892.724c5.322-12.773,76.65-14.912,459.883-14.912
		c506.709,0,492.866-2.129,562.065,75.586c85.166,92.607,111.777,176.709,226.748,704.707
		c85.161,394.946,92.617,437.529,92.617,550.366c1.055,104.321-2.134,127.749-20.234,159.683
		c-40.449,69.189-64.932,74.512-337.456,74.512c-150.098,0-242.71,4.263-242.71,10.649c0,5.322,14.902,75.576,31.934,156.484
		c37.261,172.451,39.39,201.196,11.714,216.099c-11.714,6.392-92.617,10.645-186.294,10.645
		C2251.689,2482.636,2215.488,2479.443,2202.719,2466.665z M2727.529,1899.277c11.709-22.358,12.773-21.289-120.293-642.969
		c-56.426-262.949-108.584-492.881-117.095-513.115c-20.225-50.02-44.717-59.6-141.587-59.6c-89.419,0-109.644,9.58-109.644,48.955
		c0,28.74,218.228,1059.209,234.194,1106.05c26.611,75.581,33.003,79.839,143.716,79.839
		C2701.982,1918.437,2719.013,1915.249,2727.529,1899.277z"/>
	<path fill="#CDDC39" d="M3426.914,2468.799c-13.833-9.58-64.927-234.199-219.287-953.813
		c-111.772-517.358-202.256-951.694-202.256-965.522v-25.557h457.744c434.321,0,460.937,1.064,499.262,21.289
		c71.313,36.211,130.942,123.486,175.649,255.488c13.838,43.643,68.12,273.594,119.219,510.976
		c81.968,378.975,92.617,444.971,93.687,542.905c1.06,91.553-3.203,119.229-20.229,154.36
		c-37.261,74.512-59.609,79.834-337.456,79.834c-206.513,0-242.71,2.134-242.71,15.972c0,8.516,14.907,80.903,31.934,161.812
		c37.261,168.188,37.261,176.704,14.907,199.063c-13.848,13.838-45.781,17.031-184.17,17.031
		C3495.049,2482.636,3440.761,2478.384,3426.914,2468.799z M3950.664,1875.859c3.193-34.067-205.449-1041.113-233.125-1125.215
		c-17.036-54.277-44.712-67.051-142.646-67.051c-94.751,0-111.777,8.506-111.777,55.352c0,31.934,217.168,1057.075,234.194,1109.233
		c22.354,64.937,36.201,71.323,147.974,68.125l102.192-3.188L3950.664,1875.859z"/>
	<path fill="#CDDC39" d="M10239.882,2458.154c-9.57-12.773-31.943-100.068-52.158-193.745l-35.127-170.322l-260.811-5.327
		c-250.156-5.322-261.875-6.387-304.463-30.869c-70.244-40.454-131.992-137.319-172.451-272.52
		c-12.773-41.514-61.738-256.553-108.564-479.043c-97.949-458.799-113.916-601.455-78.779-692.998
		c35.117-91.553,20.225-89.424,539.707-89.424c438.584,0,455.615,1.064,466.26,20.234
		c12.773,25.547,393.867,1823.53,396.006,1871.43c2.129,63.872-7.451,67.065-200.127,67.065
		C10260.116,2482.636,10254.784,2481.572,10239.882,2458.154z M10092.978,1874.795c4.258-44.707-216.104-1096.465-238.447-1140.107
		c-22.363-42.588-45.781-51.094-139.453-51.094c-87.305,0-109.648,9.58-109.648,45.771c0,24.482,220.352,1076.23,235.254,1118.813
		c21.299,64.937,35.137,71.323,146.914,68.125l102.188-3.188L10092.978,1874.795z"/>
	<path fill="#CDDC39" d="M344.058,2065.342C331.279,2035.537,24.697,575,24.697,545.195c0-20.225,7.456-21.289,157.549-21.289
		h157.549l27.681,29.814c14.902,15.967,121.357,237.383,237.388,491.797c116.035,254.433,221.421,484.37,236.328,510.981
		l25.547,47.905l-7.456-47.905c-4.253-26.611-8.516-67.061-8.516-90.483l-1.064-42.578l188.428-3.193
		c149.028-2.139,190.547,0,202.256,12.773c20.225,20.215,114.971,477.964,114.971,556.743c0,93.677-8.516,98.999-171.392,98.999
		c-152.227,0-177.773-9.575-232.065-88.35c-18.096-26.616-109.653-212.905-204.39-414.106
		c-93.677-200.122-168.193-353.413-165-338.521c3.193,14.912,39.39,187.354,80.903,383.237
		c75.581,363.003,84.097,422.617,61.738,444.961c-8.511,8.525-67.065,12.778-191.611,12.778
		C357.896,2088.76,353.633,2088.76,344.058,2065.342z"/>
	<path fill="#CDDC39" d="M1536.323,2065.342c-15.967-38.32-330-1472.236-330-1508.437v-32.998h202.256
		c111.777,0,202.261,2.139,202.261,4.268c0,2.119,72.383,332.119,159.678,733.447c88.354,401.333,159.678,746.24,159.678,765.4
		c0,20.225-5.322,41.514-12.773,48.96c-8.516,8.525-67.065,12.778-191.616,12.778
		C1550.161,2088.76,1545.903,2088.76,1536.323,2065.342z"/>
	<path fill="#CDDC39" d="M4692.641,2068.535c-46.846-21.289-95.811-70.259-129.873-128.809
		c-45.771-77.705-80.898-205.449-170.327-625.938c-84.092-396.006-92.617-443.906-92.617-555.683
		c-1.055-100.068,3.208-129.873,19.17-162.871c35.132-71.328,36.191-71.328,454.551-71.328c359.814,0,377.905,1.064,421.553,22.354
		c80.903,39.385,154.36,167.139,199.072,344.912c37.256,149.033,167.124,785.62,178.838,876.103
		c14.897,111.772,3.193,212.905-29.805,262.935c-36.201,56.421-57.49,58.55-448.174,58.55
		C4767.158,2088.76,4730.961,2086.631,4692.641,2068.535z M5174.868,1868.403c3.193-39.385-191.611-999.585-223.55-1099.653
		c-22.354-72.383-43.638-85.156-142.637-85.156c-86.23,0-121.362,12.773-121.362,43.633c0,18.096,223.55,1077.304,236.328,1116.694
		c21.289,70.259,32.993,75.581,145.84,72.383l102.192-3.188L5174.868,1868.403z"/>
	<path fill="#CDDC39" d="M5800.81,2065.342c-18.091-29.805-328.936-1506.299-321.479-1526.523
		c4.253-11.719,39.375-14.912,160.737-14.912c150.093,0,156.484,1.064,178.838,25.557c12.773,13.828,107.52,208.643,208.652,433.252
		c252.295,554.624,281.035,613.174,285.293,595.078c2.129-8.516-41.523-233.145-97.939-498.193
		c-55.361-265.078-101.133-498.193-101.133-518.428v-37.266h195.879c118.164,0,199.063,4.268,203.33,10.645
		c7.441,11.709,276.777,1294.468,293.789,1398.789c6.406,34.067,7.461,76.646,4.268,93.682
		c-12.773,56.416-26.602,61.738-173.505,61.738c-159.688,0-179.912-8.511-238.457-96.87
		c-20.225-31.934-110.713-216.094-201.201-410.908c-89.424-194.8-163.936-352.349-165-351.294
		c-1.064,1.074,32.998,170.322,76.631,374.717c78.789,375.776,89.434,448.164,66.016,471.577
		c-8.516,8.525-66.016,12.778-186.299,12.778C5821.044,2088.76,5815.717,2087.7,5800.81,2065.342z"/>
	<path fill="#CDDC39" d="M7130.409,2068.535c-81.973-38.325-144.775-128.809-189.492-272.515
		c-24.473-79.839-172.451-761.137-200.126-925.073c-6.387-39.385-9.58-111.777-7.451-159.678
		c5.332-100.068,30.869-155.43,80.898-175.664c21.299-8.506,141.582-11.699,413.037-9.561l383.223,3.184l40.459,26.611
		c21.289,14.912,57.49,53.223,79.854,86.221c44.688,66.006,110.693,251.24,105.371,294.883l-3.184,28.74l-188.428,3.193
		c-220.361,3.203-208.652,8.516-236.328-120.283c-20.225-95.811-26.611-111.777-52.158-140.527
		c-19.16-21.289-31.934-24.473-109.639-24.473c-86.23,0-121.357,12.773-121.357,43.633c0,17.041,223.545,1075.18,236.318,1118.823
		c19.17,66.001,35.137,73.452,147.959,70.254l100.078-3.188l3.193-42.583c2.129-23.418-13.838-126.675-36.191-229.937
		c-21.289-103.257-36.201-195.869-33.008-205.459c6.396-14.893,30.879-17.031,192.686-17.031
		c220.352,0,204.375-9.59,239.521,147.974c68.125,299.131,52.158,466.265-48.975,507.783
		c-26.621,11.709-113.906,14.897-393.867,14.897C7204.921,2088.76,7168.72,2086.631,7130.409,2068.535z"/>
	<path fill="#CDDC39" d="M8366.317,2072.793c-48.965-17.036-104.326-68.13-138.389-127.744
		c-48.965-84.092-80.898-202.256-172.441-630.205c-84.111-394.931-92.617-444.961-93.691-556.738
		c-1.064-97.939,3.203-129.873,18.096-160.742c37.256-74.521,40.459-75.586,472.656-71.318l384.297,3.184l44.697,31.943
		c57.5,40.449,117.1,139.453,153.311,252.295c14.893,48.955,65.986,272.51,113.896,498.193
		c77.705,367.256,87.285,422.617,88.35,532.261c1.074,104.321-2.119,128.809-21.279,165.005
		c-40.469,78.774-46.855,79.834-451.367,79.834C8488.729,2087.7,8398.251,2084.507,8366.317,2072.793z M8837.909,1893.955
		c6.387-15.967,4.258-52.163-4.268-99.004c-41.514-215.029-221.416-1043.222-229.922-1059.199
		c-23.438-45.781-40.469-52.158-129.873-52.158c-47.91,0-94.756,4.258-103.271,10.635c-9.58,5.322-14.902,24.492-13.838,50.039
		c2.129,39.385,217.158,1073.037,233.125,1115.62c18.096,52.163,34.072,58.55,139.463,58.55
		C8824.062,1918.437,8829.384,1917.373,8837.909,1893.955z"/>
	<path fill="#CDDC39" d="M10843.476,2062.148c-59.619-29.805-91.543-66.006-133.076-149.033
		c-45.771-91.548-69.189-179.902-158.604-601.455c-97.939-464.131-113.906-606.787-78.789-698.33
		c34.072-90.488,29.814-89.424,460.947-89.424c421.553,0,417.295-1.064,485.42,75.586
		c62.803,69.189,130.938,231.006,137.334,323.613l2.119,42.578l-193.74,3.193c-223.555,3.203-205.459,11.719-232.061-113.906
		c-20.234-97.92-40.449-145.83-68.135-160.742c-12.764-6.377-59.619-10.635-109.648-8.506c-68.125,2.129-88.35,7.451-97.939,22.344
		c-8.506,13.838-1.055,70.264,34.063,244.844c25.566,123.496,51.094,243.779,56.426,265.078l10.645,40.449l332.129,2.119
		l332.139,3.193l12.773,26.621c6.377,14.902,31.934,124.551,56.416,244.839c64.941,318.291,61.738,446.035-11.709,517.358
		l-31.924,30.869l-374.717,3.193l-374.727,3.193L10843.476,2062.148z M11338.476,1877.988
		c3.184-27.681-54.297-333.198-78.77-419.434c-5.332-17.031-21.299-19.15-133.066-19.15c-103.262,0-126.689,3.193-126.689,15.967
		c0,29.805,84.102,399.194,96.865,422.617c20.234,38.315,29.824,40.449,137.344,38.315l101.113-3.188L11338.476,1877.988z"/>
</g>
<path fill="#9E9D24" d="M-154.612,31.192c0,0-78.527,71.739-61.078,115.366l69.805,71.743l-36.168,2.908l-44.298-20.359
	c0,0-27.889-24.235-40.122-51.381l16.853-23.269l27.146-34.083l28.223-30.066L-154.612,31.192z"/>
<path fill="#9E9D24" d="M-265.563,150.307c0,0,71.403,78.836,115.103,61.57l72.042-69.495l2.754,36.179l-20.549,44.21
	c0,0-24.355,27.787-51.553,39.9l-23.196-16.95l-33.966-27.292l-29.946-28.351L-265.563,150.307z"/>
<path fill="#9E9D24" d="M-148.251,263.029c0,0,77.692-72.641,59.742-116.062l-70.624-70.935l36.131-3.323l44.531,19.845
	c0,0,28.166,23.916,40.708,50.92l-16.583,23.46l-26.752,34.394l-27.874,30.389L-148.251,263.029z"/>
<path fill="#9E9D24" d="M-37.379,144.14c0,0-71.582-78.668-115.243-61.309l-63.921,61.309l-9.576-30.471l19.228-41.613
	c0,0,24.292-27.839,51.464-40.016l23.234,16.9l34.027,27.216l30.01,28.285L-37.379,144.14z"/>
<path fill="#9E9D24" d="M-154.612,31.192c0,0-76.364,31.023-111.861,118.277c0,0,12.977,10.665,25.579-4.848
	S-214.72,75.791-154.612,31.192z"/>
<path fill="#9E9D24" d="M-265.563,150.307c0,0,30.694,76.494,117.797,112.365c0,0,10.722-12.929-4.735-25.598
	C-167.961,224.407-221.22,210.604-265.563,150.307z"/>
<path fill="#9E9D24" d="M-148.251,263.029c0,0,75.998-31.897,110.489-119.555c0,0-13.095-10.516-25.522,5.141
	C-75.705,164.271-88.662,217.743-148.251,263.029z"/>
<path fill="#9E9D24" d="M-37.379,144.14c0,0-30.863-76.422-118.049-112.1c0,0-10.693,12.955,4.799,25.589
	C-135.147,70.262-81.856,83.943-37.379,144.14z"/>
<path fill="#9E9D24" d="M-127.518,118.968c0,0-33.805-1.38-39.632,12.38l-0.3,31.84l-8.818-7.443l-5.447-14.522
	c0,0-0.872-11.721,2.443-20.59l9.018-1.48l13.766-1.622l13.106-0.471L-127.518,118.968z"/>
<path fill="#9E9D24" d="M-179.253,121.024c0,0-1.53,33.798,12.208,39.689l31.839,0.433l-7.483,8.791l-14.541,5.385
	c0,0-11.727,0.821-20.582-2.534l-1.445-9.021l-1.56-13.773l-0.415-13.11L-179.253,121.024z"/>
<path fill="#9E9D24" d="M-178.002,172.76c0,0,33.819,0.987,39.486-12.836l-0.065-31.841l8.906,7.342l5.613,14.454
	c0,0,1.006,11.709-2.207,20.619l-9.002,1.585l-13.745,1.775l-13.098,0.623L-178.002,172.76z"/>
<path fill="#9E9D24" d="M-126.333,170.731c0,0,1.449-33.798-12.301-39.655l-28.167-0.467l4.662-9.027l13.661-5.091
	c0,0,11.723-0.851,20.585,2.485l1.466,9.021l1.591,13.768l0.447,13.108L-126.333,170.731z"/>
<path fill="#9E9D24" d="M-127.518,118.968c0,0-24.199-10.094-51.754,1.664c0,0,0.543,5.316,6.862,4.635
	C-166.089,124.583-151.083,115.581-127.518,118.968z"/>
<path fill="#9E9D24" d="M-179.253,121.024c0,0-10.202,24.153,1.442,51.763c0,0,5.313-0.521,4.662-6.843
	C-173.804,159.618-182.741,144.576-179.253,121.024z"/>
<path fill="#9E9D24" d="M-178.002,172.76c0,0,24.311,9.813,51.733-2.262c0,0-0.605-5.31-6.915-4.558
	C-139.498,166.698-154.403,175.874-178.002,172.76z"/>
<path fill="#9E9D24" d="M-126.333,170.731c0,0,10.146-24.173-1.562-51.756c0,0-5.315,0.532-4.647,6.855
	C-131.871,132.151-122.897,147.174-126.333,170.731z"/>
</svg>
